<svg height="511pt" viewBox="-73 0 511 512" width="511pt" xmlns="http://www.w3.org/2000/svg"><path d="M309.895 52.02C274.69 17.512 228.12-.938 178.785.035 137.81.855 99.328 15.063 67.504 41.121c-30.848 25.262-52.89 60.363-62.07 98.836-1.282 5.371 2.035 10.766 7.406 12.047 5.37 1.285 10.765-2.031 12.047-7.406C42.035 72.727 105.484 21.504 179.184 20.03c43.941-.883 85.378 15.559 116.71 46.274C327.239 97.027 344.5 138.117 344.5 182c0 54.227-26.96 104.617-72.125 134.79a44.613 44.613 0 00-18.75 27.21H192.5v-78.559c44.938-4.992 80-43.195 80-89.441 0-49.625-40.375-90-90-90s-90 40.375-90 90c0 46.246 35.063 84.453 80 89.441V344h-61.137c-2.535-11.023-9.215-20.828-18.91-27.324-34.183-22.903-58.195-57.442-67.61-97.25-1.273-5.375-6.655-8.703-12.034-7.43-5.375 1.27-8.7 6.656-7.43 12.031C15.96 268.766 42.929 307.57 81.32 333.29c7 4.691 11.18 12.434 11.18 20.711v68c0 13.234 8.613 24.484 20.527 28.457C117.223 485.078 146.766 512 182.5 512s65.277-26.922 69.473-61.543c11.91-3.973 20.527-15.223 20.527-28.457v-68.004c0-8.289 4.105-15.98 10.984-20.574 50.73-33.895 81.016-90.5 81.016-151.422 0-49.3-19.39-95.46-54.605-129.98zM112.5 176.004c0-38.602 31.402-70.004 70-70.004s70 31.402 70 70.004c0 38.586-31.383 69.98-69.969 69.996h-.062c-38.586-.016-69.969-31.41-69.969-69.996zm0 187.996h140v24h-140zm0 44h140v14c0 5.512-4.484 10-10 10h-120c-5.516 0-10-4.488-10-10zm70 84c-24.145 0-44.348-17.207-48.992-40h97.988c-4.648 22.793-24.848 40-48.996 40zm0 0"/><path d="M183.23 206.695l36.485-36.48c3.902-3.906 3.906-10.238 0-14.145s-10.238-3.902-14.145 0l-29.41 29.414-13.722-13.722c-3.903-3.907-10.235-3.907-14.141 0s-3.906 10.238 0 14.144l20.793 20.79c1.953 1.952 4.512 2.929 7.07 2.929s5.117-.977 7.07-2.93zM17.57 189.07A10.087 10.087 0 0020.5 182c0-2.633-1.07-5.21-2.93-7.07-1.86-1.86-4.441-2.93-7.07-2.93s-5.21 1.07-7.07 2.93A10.073 10.073 0 00.5 182c0 2.629 1.07 5.207 2.93 7.07 1.86 1.86 4.44 2.93 7.07 2.93s5.21-1.07 7.07-2.93zm0 0"/></svg>