<svg fill="#fff" height="24" width="24" viewBox="0 0 1024 1024" xmlns="http://www.w3.org/2000/svg"><path d="M960 512c-20.416 266.944-232.96 448-486.08 448C304.256 960 152.064 872.32 64 734.272V832H0V576h256v64H89.024c66.432 152.64 215.68 253.248 384.96 253.248 216.64 0 398.656-181.056 418.944-381.248H960zM479.552 65.6c169.728 0 319.168 99.84 382.912 254.4H704v64h256V128h-64v109.632C811.52 91.328 654.848.512 479.552.512 229.824.512 20.16 192 0 448h66.24C86.272 192 265.792 65.6 479.552 65.6z"/></svg>